<svg xmlns="http://www.w3.org/2000/svg" viewBox="0 0 49.832 126">
  <defs>
    <style>
      .cls-1 {
        fill: none;
        stroke: #f0666a;
        stroke-linecap: round;
        stroke-linejoin: round;
        stroke-width: 3px;
      }

      .cls-2 {
        fill: #f0666a;
      }
    </style>
  </defs>
  <g id="レイヤー_4" data-name="レイヤー 4">
    <g>
      <polyline class="cls-1" points="48.332 31.5 29.332 1.5 29.332 124.5"/>
      <g>
        <path class="cls-2" d="M3.726,25.311q0-.81.864-.811H15.479a.749.749,0,0,1,.847.847v4.787A4.172,4.172,0,0,1,15.5,32.9a3.26,3.26,0,0,1-2.629.98,3.339,3.339,0,0,1-2.664-.98,4.111,4.111,0,0,1-.846-2.764v-4H4.59C4.014,26.139,3.726,25.862,3.726,25.311Zm7.2.828v3.8a2.558,2.558,0,0,0,.459,1.646,1.8,1.8,0,0,0,1.484.568,1.755,1.755,0,0,0,1.459-.568,2.607,2.607,0,0,0,.449-1.646v-3.8Z"/>
        <path class="cls-2" d="M3.582,38.252a3.357,3.357,0,0,1,.6-2.169,2.16,2.16,0,0,1,1.844-.854A2.252,2.252,0,0,1,7.56,35.8a3.861,3.861,0,0,1,1.016,1.458A4.777,4.777,0,0,1,8.945,39.1a2.965,2.965,0,0,1-.1,1.026,2.576,2.576,0,0,1-.388.811h1.08a1.57,1.57,0,0,0,1.315-.424,2.237,2.237,0,0,0,.306-1.3,4.928,4.928,0,0,0-.154-1.178,6.313,6.313,0,0,0-.4-1.162,1.28,1.28,0,0,1-.1-.648.656.656,0,0,1,.334-.449.666.666,0,0,1,.584-.081.787.787,0,0,1,.441.476,7.369,7.369,0,0,1,.523,1.467,6.554,6.554,0,0,1,.2,1.575,3.874,3.874,0,0,1-.657,2.466,2.939,2.939,0,0,1-2.386.811H5.2a.917.917,0,0,0-.369.045.368.368,0,0,0-.135.224,3.368,3.368,0,0,0-.117.468c-.029.168-.093.252-.188.252a.676.676,0,0,1-.72-.611,3.224,3.224,0,0,1-.09-.721,1.271,1.271,0,0,1,.215-.827,1.256,1.256,0,0,1,.775-.343,2.957,2.957,0,0,1-.72-1.224A5.759,5.759,0,0,1,3.582,38.252ZM5,38.271a4.66,4.66,0,0,0,.225,1.377,2.288,2.288,0,0,0,.593.98,1.192,1.192,0,0,0,.928.324.809.809,0,0,0,.72-.512,2.646,2.646,0,0,0,.179-1.216A3.456,3.456,0,0,0,7.406,38a2.412,2.412,0,0,0-.584-.89,1.158,1.158,0,0,0-.81-.333.9.9,0,0,0-.766.414A1.848,1.848,0,0,0,5,38.271Z"/>
        <path class="cls-2" d="M0,48.764a4.247,4.247,0,0,1,1.3-3.239.707.707,0,0,1,.613-.235.744.744,0,0,1,.5.378.668.668,0,0,1,.144.568,1.5,1.5,0,0,1-.343.566,2.731,2.731,0,0,0-.719,1.962,2.117,2.117,0,0,0,.746,1.764,3.7,3.7,0,0,0,2.314.594h.954a3.041,3.041,0,0,1-1.153-2.429,4.066,4.066,0,0,1,.487-2,3.392,3.392,0,0,1,1.412-1.377,4.653,4.653,0,0,1,2.224-.5,4.583,4.583,0,0,1,2.223.5A3.42,3.42,0,0,1,12.1,46.7a4.065,4.065,0,0,1,.486,2,3.24,3.24,0,0,1-.36,1.493,2.777,2.777,0,0,1-1.1,1.134h.6a.615.615,0,0,1,.5.18.827.827,0,0,1,.143.523q0,.7-.845.7H4.554A5.01,5.01,0,0,1,1.16,51.707,3.706,3.706,0,0,1,0,48.764Zm5.777.036a2.273,2.273,0,0,0,.739,1.746,2.772,2.772,0,0,0,1.962.685,2.71,2.71,0,0,0,1.944-.685,2.307,2.307,0,0,0,.72-1.746,2.2,2.2,0,0,0-.72-1.7,2.777,2.777,0,0,0-1.944-.656,2.841,2.841,0,0,0-1.962.656A2.169,2.169,0,0,0,5.777,48.8Z"/>
        <path class="cls-2" d="M3.527,58.826a4.35,4.35,0,0,1,.523-2.16,3.577,3.577,0,0,1,1.538-1.458,5.345,5.345,0,0,1,2.457-.521,5.213,5.213,0,0,1,2.4.521,3.87,3.87,0,0,1,1.574,1.432,3.916,3.916,0,0,1,.559,2.1,3.529,3.529,0,0,1-.567,2.025,3.757,3.757,0,0,1-1.45,1.277,4.017,4.017,0,0,1-1.817.442.861.861,0,0,1-.693-.216,1,1,0,0,1-.171-.631V56.271A3.224,3.224,0,0,0,5.7,57a2.4,2.4,0,0,0-.748,1.846,2.3,2.3,0,0,0,1.1,2.069,1.581,1.581,0,0,1,.406.54.563.563,0,0,1-.1.54.72.72,0,0,1-.5.352.888.888,0,0,1-.666-.243A3.77,3.77,0,0,1,3.933,60.69,4.139,4.139,0,0,1,3.527,58.826ZM9.18,56.361V60.9a2.636,2.636,0,0,0,1.511-.721,1.973,1.973,0,0,0,.577-1.458,2.278,2.278,0,0,0-.532-1.548A2.638,2.638,0,0,0,9.18,56.361Z"/>
        <path class="cls-2" d="M3.726,73.766a.755.755,0,0,1,.864-.846H14.777v-3.1q0-.864.775-.864c.515,0,.774.288.774.864v7.848c0,.564-.259.846-.774.846s-.775-.282-.775-.846v-3.1H4.59Q3.726,74.576,3.726,73.766Z"/>
        <path class="cls-2" d="M3.527,83.953A3.886,3.886,0,0,1,5.688,80.38a5.106,5.106,0,0,1,2.375-.53,5.062,5.062,0,0,1,2.368.53,4.013,4.013,0,0,1,0,7.147,5.063,5.063,0,0,1-2.368.531,5.106,5.106,0,0,1-2.375-.531,3.886,3.886,0,0,1-2.161-3.574Zm1.477,0a2.235,2.235,0,0,0,.818,1.791,3.362,3.362,0,0,0,2.241.694,3.321,3.321,0,0,0,2.232-.694,2.385,2.385,0,0,0,0-3.582,3.32,3.32,0,0,0-2.232-.692,3.362,3.362,0,0,0-2.241.692A2.238,2.238,0,0,0,5,83.953Z"/>
        <path class="cls-2" d="M.09,90.811q0-.81.863-.81H11.52q.846,0,.845.72c0,.48-.125.726-.377.738l-.846.036A3.348,3.348,0,0,1,12.2,92.647a3.108,3.108,0,0,1,.379,1.53,4.033,4.033,0,0,1-.549,2.106,3.862,3.862,0,0,1-1.566,1.449,5.13,5.13,0,0,1-2.4.531,5.183,5.183,0,0,1-2.412-.531,3.849,3.849,0,0,1-1.575-1.449,4.033,4.033,0,0,1-.549-2.106,3.015,3.015,0,0,1,.352-1.458,3.3,3.3,0,0,1,.963-1.1H.953Q.089,91.621.09,90.811ZM5,94.123a2.319,2.319,0,0,0,.818,1.819,3.283,3.283,0,0,0,2.241.719,3.243,3.243,0,0,0,2.232-.719,2.328,2.328,0,0,0,.81-1.819,2.3,2.3,0,0,0-.81-1.809A3.265,3.265,0,0,0,8.063,91.6a3.305,3.305,0,0,0-2.241.711A2.289,2.289,0,0,0,5,94.123Z"/>
      </g>
    </g>
  </g>
</svg>
