<svg xmlns="http://www.w3.org/2000/svg" viewBox="0 0 41 41">
  <defs>
    <style>
      .cls-1 {
        fill: none;
        stroke: #29a6dd;
        stroke-linecap: round;
        stroke-linejoin: round;
      }
    </style>
  </defs>
  <g id="レイヤー_4" data-name="レイヤー 4">
    <g>
      <g>
        <circle class="cls-1" cx="20.5" cy="10.944" r="10.444"/>
        <g>
          <path class="cls-1" d="M14.775,20.389A40.065,40.065,0,0,0,8.112,38.336"/>
          <path class="cls-1" d="M26.225,20.389a40.065,40.065,0,0,1,6.663,17.947"/>
        </g>
      </g>
      <path class="cls-1" d="M10.21,9.432s8.7.672,13.014-5.562c0,0,2.559,6.234,7.546,5.754"/>
      <path class="cls-1" d="M13.312,22.741c5.068,2.74,9.308,2.74,14.377,0"/>
      <line class="cls-1" x1="16.095" y1="24.105" x2="16.095" y2="38.876"/>
      <path class="cls-1" d="M19.148,28.182a.288.288,0,1,1-.288-.287A.288.288,0,0,1,19.148,28.182Z"/>
      <path class="cls-1" d="M19.2,31.875a.288.288,0,1,1-.288-.288A.288.288,0,0,1,19.2,31.875Z"/>
      <path class="cls-1" d="M19.2,35.615a.288.288,0,1,1-.288-.287A.288.288,0,0,1,19.2,35.615Z"/>
    </g>
  </g>
</svg>
